<?xml version="1.0" standalone="no"?>
<!DOCTYPE svg PUBLIC "-//W3C//DTD SVG 20010904//EN"
 "http://www.w3.org/TR/2001/REC-SVG-20010904/DTD/svg10.dtd">
<svg version="1.0" xmlns="http://www.w3.org/2000/svg"
 width="512.000000pt" height="512.000000pt" viewBox="0 0 512.000000 512.000000"
 preserveAspectRatio="xMidYMid meet">

<g transform="translate(0.000000,512.000000) scale(0.100000,-0.100000)"
fill="#555577" stroke="none">
<path d="M844 3786 c-17 -8 -40 -26 -52 -41 -22 -28 -22 -30 -22 -516 l0 -489
90 0 90 0 0 435 0 435 1320 0 1320 0 0 -135 0 -135 91 0 90 0 -3 194 c-3 190
-4 195 -27 220 -14 14 -41 30 -60 36 -23 6 -534 10 -1421 10 -1137 -1 -1391
-3 -1416 -14z"/>
<path d="M3355 3215 c-48 -17 -80 -52 -94 -103 -15 -53 -15 -1553 0 -1607 6
-22 21 -51 32 -64 47 -51 45 -51 655 -51 l569 0 33 23 c18 12 43 35 54 50 21
28 21 32 21 847 0 816 0 819 -21 847 -12 15 -36 37 -55 48 -33 19 -54 20 -594
22 -465 2 -567 0 -600 -12z m1175 -825 l0 -700 -590 0 -590 0 0 700 0 700 590
0 590 0 0 -700z m-756 -791 c50 -40 24 -119 -40 -119 -68 0 -97 68 -49 115 30
30 54 31 89 4z m210 0 c50 -40 24 -119 -40 -119 -68 0 -97 68 -49 115 30 30
54 31 89 4z m210 0 c52 -41 25 -119 -41 -119 -67 0 -96 68 -48 115 30 30 54
31 89 4z"/>
<path d="M584 2619 c-16 -5 -41 -20 -55 -35 l-24 -26 0 -589 0 -589 33 -32 32
-33 263 -3 c284 -4 322 1 356 45 21 25 21 36 21 613 0 577 0 588 -20 613 -12
15 -38 31 -58 37 -45 12 -504 12 -548 -1z m336 -129 c0 -6 -27 -10 -60 -10
-33 0 -60 4 -60 10 0 6 27 10 60 10 33 0 60 -4 60 -10z m220 -525 l0 -435
-285 0 -285 0 0 435 0 435 285 0 285 0 0 -435z m-252 -497 c19 -19 15 -66 -7
-78 -31 -16 -49 -12 -67 15 -15 23 -15 27 0 50 18 27 54 33 74 13z"/>
<path d="M1330 1990 l0 -180 905 0 905 0 0 180 0 180 -905 0 -905 0 0 -180z
m995 55 c52 -51 12 -135 -65 -135 -32 0 -70 44 -70 80 0 19 9 40 25 55 15 16
36 25 55 25 19 0 40 -9 55 -25z"/>
<path d="M1957 1683 c-3 -5 -8 -30 -11 -58 -12 -87 -25 -113 -83 -163 -33 -29
-53 -54 -49 -61 9 -15 902 -16 911 -1 6 10 -62 80 -77 80 -14 0 -45 75 -52
125 -13 94 22 85 -326 85 -170 0 -311 -3 -313 -7z"/>
</g>
</svg>
