<?xml version="1.0" standalone="no"?>
<!DOCTYPE svg PUBLIC "-//W3C//DTD SVG 20010904//EN"
 "http://www.w3.org/TR/2001/REC-SVG-20010904/DTD/svg10.dtd">
<svg version="1.0" xmlns="http://www.w3.org/2000/svg"
 width="400.000000pt" height="400.000000pt" viewBox="0 0 400.000000 400.000000"
 preserveAspectRatio="xMidYMid meet">

<g transform="translate(0.000000,400.000000) scale(0.100000,-0.100000)"
fill="#555577" stroke="none">
<path d="M262 3739 c-100 -19 -187 -92 -234 -195 l-23 -49 -3 -1135 c-2 -782
1 -1151 8 -1187 14 -68 75 -161 129 -196 96 -64 73 -61 697 -67 l571 -5 -104
-229 c-58 -126 -107 -244 -110 -262 -8 -50 29 -120 78 -145 38 -19 58 -19 738
-17 689 3 700 3 727 24 49 36 69 72 69 122 -1 38 -21 91 -107 277 l-105 230
571 5 c522 5 575 7 619 24 66 25 150 105 184 174 l28 57 3 1134 c3 1260 5
1206 -64 1308 -37 53 -82 90 -149 120 -38 17 -128 18 -1760 19 -946 1 -1739
-2 -1763 -7z m3436 -1398 c1 -807 -1 -1107 -9 -1117 -16 -19 -3358 -21 -3377
-2 -9 9 -12 270 -12 1113 0 606 3 1105 7 1108 3 4 767 6 1697 5 l1691 -3 3
-1104z"/>
<path d="M2342 2947 c-50 -51 -92 -97 -92 -102 0 -12 242 -255 254 -255 11 0
175 160 188 184 9 16 -8 36 -113 142 -68 68 -128 124 -134 124 -6 0 -52 -42
-103 -93z"/>
<path d="M1329 3009 c-15 -15 -19 -28 -14 -47 11 -48 62 -148 113 -224 55 -81
215 -280 252 -313 12 -11 31 -33 42 -48 l21 -29 -124 -124 -124 -124 125 -125
c69 -69 131 -125 140 -125 8 0 69 54 135 120 l121 120 34 -29 c52 -45 82 -41
122 15 18 26 58 63 88 83 70 46 75 70 26 127 l-35 41 95 94 c52 51 94 100 94
109 0 19 -230 250 -250 250 -8 0 -56 -41 -107 -92 l-92 -91 -78 70 c-183 164
-366 296 -472 340 -69 28 -86 28 -112 2z"/>
<path d="M2335 2111 c-81 -36 -145 -126 -145 -202 0 -100 82 -161 268 -198 56
-11 115 -27 132 -36 72 -37 95 -12 94 104 -1 164 -69 291 -181 338 -45 18
-121 16 -168 -6z"/>
<path d="M1423 2018 c-6 -7 -36 -89 -66 -182 -40 -120 -54 -173 -46 -182 13
-16 364 99 373 123 5 11 -29 52 -111 134 -64 66 -122 119 -129 119 -6 0 -16
-6 -21 -12z"/>
</g>
</svg>
