<?xml version="1.0" standalone="no"?>
<!DOCTYPE svg PUBLIC "-//W3C//DTD SVG 20010904//EN"
 "http://www.w3.org/TR/2001/REC-SVG-20010904/DTD/svg10.dtd">
<svg version="1.0" xmlns="http://www.w3.org/2000/svg"
 width="981.000000pt" height="964.000000pt" viewBox="0 0 981.000000 964.000000"
 preserveAspectRatio="xMidYMid meet">

<g transform="translate(0.000000,964.000000) scale(0.100000,-0.100000)"
fill="#FFF" stroke="none">
<path d="M4675 9630 c-105 -13 -190 -38 -294 -86 -117 -55 -197 -112 -287
-205 -178 -185 -267 -402 -268 -660 l0 -126 -121 -61 c-412 -209 -797 -558
-1084 -982 -77 -114 -191 -304 -191 -319 0 -21 507 -224 759 -305 1244 -400
2430 -406 3466 -16 145 54 407 172 482 216 l44 25 -47 87 c-26 48 -76 133
-110 189 -62 102 -62 102 -26 74 58 -46 110 -57 190 -41 190 36 427 121 630
225 504 256 818 634 922 1111 27 124 37 268 21 316 -13 40 -61 92 -105 115
-40 21 -132 21 -171 1 -41 -22 -85 -67 -100 -103 -7 -16 -18 -71 -24 -121 -51
-421 -297 -746 -729 -964 -145 -72 -265 -116 -441 -161 -171 -43 -207 -63
-243 -132 -26 -51 -28 -129 -4 -175 25 -49 13 -39 -34 31 -156 224 -450 530
-660 686 -134 100 -309 208 -433 267 l-77 36 0 113 c0 132 -16 227 -60 346
-147 406 -576 670 -1005 619z"/>
<path d="M921 9195 c-84 -27 -140 -107 -141 -202 0 -127 62 -387 130 -539 197
-437 633 -784 1223 -973 180 -57 290 -77 345 -62 142 39 197 216 100 327 -42
47 -69 60 -183 85 -317 68 -641 232 -845 426 -112 106 -176 190 -239 313 -72
140 -102 242 -120 403 -10 87 -33 148 -67 178 -56 49 -136 66 -203 44z"/>
<path d="M2307 6938 c-407 -933 -435 -2054 -76 -3028 63 -168 224 -498 319
-649 308 -494 716 -875 1185 -1106 350 -173 665 -248 1040 -248 192 -1 301 10
485 49 123 25 130 24 130 -26 0 -69 53 -290 106 -441 260 -747 918 -1309 1698
-1449 653 -118 1309 59 1829 492 547 455 847 1190 777 1899 -103 1044 -899
1861 -1947 1999 -46 6 -146 12 -224 12 -137 2 -140 2 -135 22 4 12 15 71 26
131 130 719 70 1454 -176 2131 -25 70 -56 151 -69 180 l-24 53 -133 -64 c-325
-156 -779 -286 -1303 -374 -203 -34 -452 -68 -580 -77 -64 -5 -88 -11 -94 -23
-13 -23 -84 -337 -124 -546 -68 -349 -136 -841 -177 -1275 -12 -124 -24 -256
-28 -295 l-8 -70 -7 85 c-40 452 -73 797 -102 1070 -36 328 -123 1052 -129
1057 -1 2 -70 12 -153 23 -478 64 -948 173 -1448 337 -185 60 -430 152 -539
202 -38 17 -70 31 -71 31 -2 0 -23 -46 -48 -102z m5463 -2649 c816 -74 1513
-619 1778 -1391 237 -688 95 -1446 -376 -2008 -420 -501 -1087 -784 -1727
-732 -841 69 -1543 608 -1813 1394 -252 732 -75 1542 460 2103 430 452 1062
691 1678 634z"/>
<path d="M7520 3882 l0 -258 -97 -12 c-630 -79 -1113 -574 -1188 -1214 l-6
-58 -255 0 -254 0 0 -75 0 -75 254 0 255 0 6 -57 c46 -421 272 -791 620 -1015
181 -117 373 -183 618 -213 l47 -6 0 -255 0 -254 70 0 70 0 0 254 0 255 48 6
c114 14 225 37 298 61 460 150 818 546 913 1009 11 55 23 126 26 158 l6 57
310 0 309 0 0 75 0 75 -309 0 -310 0 -6 58 c-27 229 -110 454 -238 642 -73
107 -243 274 -355 348 -178 118 -369 191 -574 220 l-118 17 0 258 0 257 -70 0
-70 0 0 -258z m-10 -977 l0 -565 -566 0 -566 0 7 68 c46 431 353 825 772 986
94 37 251 74 316 75 l37 1 0 -565z m381 531 c460 -117 811 -499 894 -973 8
-47 15 -94 15 -104 0 -18 -20 -19 -570 -19 l-570 0 0 566 0 567 68 -6 c38 -4
111 -18 163 -31z m-381 -1816 l0 -571 -52 7 c-469 58 -854 364 -1012 802 -28
79 -66 251 -66 301 l0 31 565 0 565 0 0 -570z m1290 546 c0 -50 -32 -205 -60
-288 -111 -332 -365 -604 -688 -737 -81 -34 -247 -76 -334 -86 l-58 -6 0 564
c0 310 3 567 7 570 3 4 260 7 570 7 l563 0 0 -24z"/>
<path d="M1540 5839 c-504 -76 -943 -285 -1211 -577 -157 -171 -299 -452 -316
-622 -15 -154 142 -266 282 -201 65 30 92 68 130 180 57 171 124 279 251 404
73 72 208 169 305 218 203 102 477 179 742 208 58 7 101 18 127 32 115 65 135
236 38 326 -61 57 -137 64 -348 32z"/>
<path d="M7760 5838 c-24 -13 -57 -40 -74 -61 -26 -32 -31 -49 -34 -107 -4
-61 -1 -75 22 -114 42 -71 90 -93 240 -111 439 -51 807 -211 1032 -448 110
-115 175 -222 224 -368 42 -121 69 -159 135 -190 101 -47 224 5 269 113 9 21
16 50 16 67 0 94 -122 383 -215 511 -112 152 -245 278 -405 383 -236 155 -580
277 -916 327 -183 26 -238 26 -294 -2z"/>
<path d="M2395 2749 c-152 -51 -428 -186 -565 -276 -470 -309 -758 -730 -844
-1232 -12 -69 -12 -92 -1 -133 34 -131 196 -190 308 -112 57 40 71 70 102 209
65 288 173 484 385 695 206 205 481 373 778 473 123 42 144 55 180 109 23 35
27 52 27 109 0 59 -4 73 -30 110 -16 23 -50 53 -74 66 -65 34 -124 30 -266
-18z"/>
</g>
</svg>
