<?xml version="1.0" standalone="no"?>
<!DOCTYPE svg PUBLIC "-//W3C//DTD SVG 20010904//EN"
 "http://www.w3.org/TR/2001/REC-SVG-20010904/DTD/svg10.dtd">
<svg version="1.0" xmlns="http://www.w3.org/2000/svg"
 width="524.000000pt" height="477.000000pt" viewBox="0 0 524.000000 477.000000"
 preserveAspectRatio="xMidYMid meet">

<g transform="translate(0.000000,477.000000) scale(0.100000,-0.100000)"
fill="#FFF" stroke="none">
<path d="M290 4503 c-25 -8 -56 -26 -69 -39 -13 -13 -27 -24 -31 -24 -3 0 -17
-19 -31 -42 l-24 -43 0 -1480 c0 -814 3 -1492 7 -1507 10 -35 53 -85 98 -113
71 -45 115 -47 980 -45 448 1 821 2 828 1 10 -1 12 -59 10 -273 l-3 -273 -365
-5 c-409 -6 -397 -4 -463 -80 -58 -68 -71 -158 -32 -230 20 -35 76 -95 102
-109 31 -16 2615 -16 2646 0 12 7 41 33 64 58 78 86 80 194 6 281 -66 76 -54
74 -463 80 l-365 5 0 275 0 275 880 5 880 5 41 22 c48 26 101 82 111 121 5 15
8 695 8 1512 l0 1485 -25 35 c-13 19 -38 47 -55 62 -67 62 90 58 -2409 58
-2047 -1 -2286 -3 -2326 -17z m4460 -1638 l0 -1295 -2130 0 -2130 0 0 1295 0
1295 2130 0 2130 0 0 -1295z"/>
<path d="M2789 3774 c-35 -22 -81 -127 -119 -269 -10 -38 -35 -115 -55 -170
-21 -55 -41 -120 -46 -145 -5 -25 -13 -54 -18 -65 -20 -44 -71 -192 -71 -206
0 -12 -15 -56 -53 -159 -3 -8 -12 -37 -20 -65 -31 -102 -56 -182 -85 -270 -96
-286 -105 -320 -98 -358 7 -37 56 -93 94 -109 33 -13 85 -8 122 13 42 24 69
74 108 199 11 36 39 121 62 190 24 69 50 154 60 190 10 36 30 99 45 140 15 41
38 111 50 155 13 44 37 121 54 170 17 50 38 117 47 150 10 33 20 65 24 70 3 6
18 48 32 95 15 47 41 128 59 180 52 156 51 175 -7 240 -35 38 -39 40 -98 40
-38 0 -71 -7 -87 -16z"/>
<path d="M2002 3345 c-23 -14 -48 -25 -54 -25 -7 0 -53 -20 -103 -44 -162 -80
-303 -146 -310 -146 -3 0 -48 -20 -98 -44 -51 -25 -108 -50 -127 -57 -19 -8
-54 -31 -77 -52 -54 -49 -65 -102 -36 -168 17 -39 31 -50 107 -91 48 -27 92
-48 99 -48 7 0 59 -23 117 -51 234 -115 285 -139 293 -139 5 0 54 -23 109 -50
106 -54 159 -66 223 -53 35 7 43 15 68 63 33 64 31 97 -6 157 -17 26 -39 45
-68 57 -24 10 -80 35 -124 56 -130 62 -299 138 -319 145 -25 8 -16 16 69 57
39 19 113 55 166 81 53 26 101 47 107 47 6 0 43 16 82 36 105 54 139 124 101
208 -37 85 -131 111 -219 61z"/>
<path d="M3072 3350 c-42 -26 -76 -99 -68 -144 11 -58 40 -91 115 -129 39 -20
78 -37 85 -37 8 0 40 -15 73 -33 32 -18 74 -39 93 -46 44 -17 172 -80 184 -92
6 -5 1 -11 -10 -14 -20 -7 -189 -83 -319 -145 -44 -21 -100 -46 -124 -56 -29
-12 -51 -31 -68 -58 -38 -59 -39 -101 -6 -161 24 -42 34 -51 68 -58 64 -14
114 -1 241 59 65 31 155 73 199 94 44 21 96 44 115 51 19 7 61 28 94 46 32 18
69 36 83 39 27 7 135 61 175 87 37 25 61 91 53 143 -5 33 -16 51 -48 81 -23
21 -58 44 -77 52 -19 7 -76 32 -127 57 -50 24 -95 44 -99 44 -3 0 -54 23 -113
51 -199 96 -286 136 -321 150 -19 7 -44 19 -55 26 -30 20 -105 16 -143 -7z"/>
</g>
</svg>
