<?xml version="1.0" standalone="no"?>
<!DOCTYPE svg PUBLIC "-//W3C//DTD SVG 20010904//EN"
 "http://www.w3.org/TR/2001/REC-SVG-20010904/DTD/svg10.dtd">
<svg version="1.0" xmlns="http://www.w3.org/2000/svg"
 width="200.000000pt" height="200.000000pt" viewBox="0 0 200.000000 200.000000"
 preserveAspectRatio="xMidYMid meet">

<g transform="translate(0.000000,200.000000) scale(0.100000,-0.100000)"
fill="#FFF" stroke="none">
<path d="M60 1000 l0 -940 940 0 940 0 0 940 0 940 -940 0 -940 0 0 -940z
m127 854 c8 -20 -21 -49 -41 -41 -9 4 -16 18 -16 32 0 20 5 25 25 25 14 0 28
-7 32 -16z m121 -10 c4 -27 -26 -40 -46 -20 -21 20 -8 48 20 44 14 -2 24 -11
26 -24z m129 10 c3 -8 -1 -23 -10 -31 -21 -21 -47 -9 -47 22 0 20 5 25 25 25
14 0 28 -7 32 -16z m1433 -699 l0 -595 -870 0 -870 0 0 595 0 595 870 0 870 0
0 -595z m0 -840 l0 -185 -870 0 -870 0 0 185 0 185 870 0 870 0 0 -185z"/>
<path d="M190 1485 l0 -205 810 0 810 0 0 205 0 205 -810 0 -810 0 0 -205z"/>
<path d="M190 1000 l0 -220 375 0 375 0 0 220 0 220 -375 0 -375 0 0 -220z"/>
<path d="M1060 1000 l0 -220 375 0 375 0 0 220 0 220 -375 0 -375 0 0 -220z"/>
<path d="M190 690 l0 -30 810 0 810 0 0 30 0 30 -810 0 -810 0 0 -30z"/>
<path d="M216 436 c-16 -25 -15 -26 44 -72 33 -26 60 -50 60 -53 -1 -3 -28
-27 -60 -52 -60 -47 -60 -47 -42 -69 13 -16 23 -20 34 -14 26 16 167 129 168
135 0 5 -176 149 -184 149 -2 0 -11 -11 -20 -24z"/>
<path d="M410 220 l0 -30 125 0 125 0 0 30 0 30 -125 0 -125 0 0 -30z"/>
</g>
</svg>
