<?xml version="1.0" standalone="no"?>
<!DOCTYPE svg PUBLIC "-//W3C//DTD SVG 20010904//EN"
 "http://www.w3.org/TR/2001/REC-SVG-20010904/DTD/svg10.dtd">
<svg version="1.0" xmlns="http://www.w3.org/2000/svg"
 width="514.000000pt" height="485.000000pt" viewBox="0 0 514.000000 485.000000"
 preserveAspectRatio="xMidYMid meet">

<g transform="translate(0.000000,485.000000) scale(0.100000,-0.100000)"
fill="#FFF" stroke="none">
<path d="M3625 4810 c-12 -13 -26 -52 -35 -103 l-15 -82 -60 -6 c-33 -4 -72
-11 -86 -17 -23 -9 -30 -7 -53 17 -14 15 -26 32 -26 38 0 14 -63 69 -88 77
-28 9 -60 -5 -138 -64 -123 -93 -128 -111 -59 -211 25 -35 45 -67 45 -71 0 -5
-8 -16 -17 -26 -10 -10 -28 -39 -41 -65 -13 -25 -27 -49 -32 -52 -4 -3 -43 0
-86 6 -89 12 -119 7 -135 -23 -6 -12 -20 -71 -30 -131 -16 -95 -16 -113 -5
-136 17 -33 46 -48 110 -56 89 -12 90 -13 104 -106 l12 -84 -27 -23 c-121
-102 -128 -117 -87 -189 15 -26 42 -64 59 -83 18 -19 38 -45 44 -57 25 -48
132 -19 190 50 19 24 41 21 77 -11 18 -15 48 -36 69 -47 l37 -20 -7 -85 c-10
-141 -3 -149 183 -172 93 -11 93 -11 118 14 22 21 39 81 54 186 0 1 10 2 23 2
12 0 52 9 90 19 l67 20 12 -22 c6 -12 31 -46 56 -74 37 -45 50 -53 78 -53 38
0 102 42 187 122 45 43 49 51 43 80 -3 18 -20 47 -37 64 -52 54 -58 74 -36
113 10 19 29 49 43 66 13 18 24 38 24 45 0 9 11 11 43 7 150 -20 140 -21 169
7 26 27 40 78 55 208 10 81 -22 106 -158 123 l-45 6 -13 75 c-8 41 -18 77 -22
80 -19 11 -7 26 60 75 78 57 96 88 76 135 -7 16 -22 39 -34 51 -11 12 -21 26
-21 31 0 6 -22 33 -48 61 -38 40 -55 51 -79 51 -17 0 -38 -6 -45 -14 -8 -7
-27 -20 -43 -29 -17 -8 -40 -24 -51 -36 -21 -19 -23 -19 -38 -2 -9 10 -41 31
-72 47 -31 16 -58 34 -61 40 -2 7 0 47 6 89 18 128 -4 144 -214 162 -63 5 -72
3 -90 -17z m95 -514 c75 -23 139 -57 163 -86 50 -63 59 -77 79 -115 26 -50 35
-165 19 -232 -17 -65 -88 -162 -153 -206 -89 -62 -248 -73 -342 -25 -51 25
-125 90 -144 126 -55 101 -57 106 -57 192 0 72 4 94 28 143 78 164 251 251
407 203z"/>
<path d="M2255 4655 c-179 -24 -268 -45 -390 -91 -123 -47 -300 -139 -345
-178 -14 -12 -38 -31 -55 -41 -16 -10 -43 -31 -60 -47 -87 -82 -157 -155 -181
-189 -15 -22 -30 -39 -34 -39 -3 0 -17 -19 -30 -42 -13 -24 -26 -45 -30 -48
-8 -6 -70 -109 -70 -115 0 -3 -22 -52 -50 -109 -27 -57 -50 -112 -50 -122 0
-16 -12 -62 -30 -110 -6 -15 -36 -29 -121 -57 -63 -20 -118 -37 -122 -37 -4 0
-36 -14 -70 -31 -34 -18 -82 -42 -107 -54 -74 -37 -231 -168 -270 -225 -14
-19 -34 -45 -46 -57 -28 -30 -111 -186 -129 -243 -39 -123 -48 -182 -53 -315
-6 -202 22 -361 87 -499 21 -45 40 -88 43 -96 12 -33 120 -179 175 -235 61
-63 133 -124 164 -139 11 -5 19 -12 19 -16 0 -5 12 -11 27 -15 15 -3 38 -15
52 -25 39 -27 96 -49 199 -76 51 -13 94 -24 97 -24 3 0 5 70 5 155 l0 155 -25
0 c-13 0 -69 23 -124 51 -152 79 -269 202 -343 359 -56 119 -67 159 -74 285
-10 172 6 276 58 382 67 136 171 251 283 309 132 70 161 84 173 84 7 0 56 13
110 29 53 16 129 34 169 41 l72 13 6 41 c4 23 16 75 27 116 11 41 26 98 33
125 16 67 98 236 141 292 19 24 34 48 34 53 0 30 249 260 325 301 16 8 59 32
93 52 35 21 71 37 81 37 9 0 25 6 36 13 39 26 198 69 288 78 51 4 135 9 188 9
l96 0 24 34 c27 38 99 100 140 121 23 13 28 22 31 67 2 29 3 54 2 56 -5 7
-244 31 -304 31 -36 -1 -110 -7 -165 -14z"/>
<path d="M4726 3522 c-19 -37 -84 -96 -136 -122 -34 -17 -40 -25 -40 -53 0
-24 10 -42 40 -72 68 -68 117 -144 159 -246 69 -166 75 -198 75 -434 -1 -229
-8 -279 -63 -399 -15 -33 -33 -73 -39 -88 -6 -15 -27 -45 -47 -66 -19 -22 -35
-43 -35 -48 0 -5 -22 -27 -50 -49 -27 -21 -52 -45 -54 -52 -3 -7 -11 -13 -17
-13 -6 0 -32 -15 -58 -34 -25 -18 -90 -54 -143 -79 l-98 -46 0 -150 0 -151 24
0 c29 0 80 18 166 57 36 17 73 33 83 37 10 3 63 33 118 67 96 59 299 240 299
266 0 6 6 18 13 25 24 24 77 106 77 119 0 7 11 31 23 53 51 89 86 232 108 442
13 124 4 246 -32 429 -19 99 -60 221 -86 260 -7 11 -13 27 -13 35 0 9 -20 47
-45 84 -25 38 -45 72 -45 76 0 3 -20 28 -45 53 -25 26 -45 51 -45 56 0 5 -18
23 -40 41 l-39 31 -15 -29z"/>
<path d="M1204 2471 c-49 -22 -79 -61 -94 -122 -7 -31 -10 -366 -8 -1119 l3
-1075 24 -48 c20 -37 35 -52 69 -67 44 -20 75 -20 1361 -20 l1316 0 41 22 c23
12 50 36 60 52 18 30 19 79 19 1151 0 616 -3 1132 -7 1146 -4 14 -29 41 -55
60 l-48 34 -1320 2 c-1270 3 -1322 2 -1361 -16z m355 -238 c35 -27 47 -73 32
-123 -10 -33 -19 -43 -58 -61 -46 -21 -113 -20 -113 1 0 6 -6 10 -14 10 -16 0
-46 58 -46 90 0 33 27 78 58 95 35 20 106 14 141 -12z m377 15 c24 -9 38 -22
49 -50 8 -21 15 -45 15 -54 0 -21 -30 -77 -49 -91 -52 -38 -149 -15 -169 41
-42 114 40 196 154 154z m411 -3 c43 -21 68 -85 53 -131 -23 -68 -102 -99
-168 -65 -48 25 -62 46 -62 96 0 91 92 143 177 100z m1501 -1227 l-3 -843
-1290 0 -1290 0 -3 843 -2 842 1295 0 1295 0 -2 -842z"/>
<path d="M1518 1270 l2 -400 1010 0 1010 0 0 400 0 400 -1012 0 -1013 0 3
-400z"/>
<path d="M1528 609 c-13 -7 -18 -23 -18 -59 0 -48 1 -49 38 -59 22 -7 182 -11
410 -11 433 0 442 1 442 69 0 73 9 71 -450 71 -256 0 -411 -4 -422 -11z"/>
<path d="M2610 593 c-15 -19 -19 -35 -15 -53 14 -57 -3 -55 481 -55 430 0 446
1 460 19 19 27 18 71 -3 96 -17 19 -29 20 -459 20 l-443 0 -21 -27z"/>
</g>
</svg>
